<svg xmlns="http://www.w3.org/2000/svg" viewBox="0 0 274 42.953">
  <defs>
    <style>
      .cls-1, .cls-3 {
        fill: #005cb9;
      }

      .cls-1 {
        font-size: 16px;
        font-family: ArialMT, Arial;
      }

      .cls-2 {
        fill: none;
        stroke: #005cb9;
      }

      .cls-4 {
        fill: #ab0033;
      }
    </style>
  </defs>
  <g id="LogoSunatCharlas" transform="translate(-70 -20.399)">
    <text id="CHARLAS" class="cls-1" transform="translate(268 47)"><tspan x="0" y="0">CHARLAS</tspan></text>
    <line id="Line_1" data-name="Line 1" class="cls-2" y2="26" transform="translate(251.5 28.5)"/>
    <g id="LogoSunat" transform="translate(-137 6.399)">
      <path id="Path_1" data-name="Path 1" class="cls-3" d="M.574,30.356a2,2,0,0,1,.072-2.895L9.019,19.5c-1.155,5.138-2.382,9.843,8.806,10.06,12.271.145,11.4,7.889,11.4,7.889A7.132,7.132,0,0,1,27.5,40.995l-6.641,6.731a2.132,2.132,0,0,1-2.959,0Z" transform="translate(207.013 8.631)"/>
      <path id="Path_2" data-name="Path 2" class="cls-4" d="M41.749,17.942a2,2,0,0,1-.072,2.895L33.3,28.8c1.155-5.138,2.382-9.843-8.806-10.06-12.343-.145-11.4-7.889-11.4-7.889A7.132,7.132,0,0,1,14.826,7.3L21.467.572a2.132,2.132,0,0,1,2.959,0Z" transform="translate(203.371 14.025)"/>
      <path id="Path_3" data-name="Path 3" class="cls-3" d="M188.424,33.5l-8.589-17.514h0a1.418,1.418,0,0,0-.65-.651,1104.8,1104.8,0,0,1-.144-.145H178.9a11.221,11.221,0,0,0-2.6-.289,10.726,10.726,0,0,0-2.6.289h0c-.072,0-.144.072-.217.072h0a.252.252,0,0,0-.144.072,1.707,1.707,0,0,0-.577.651h0L164.244,33.5h0a1.193,1.193,0,0,0-.144.724,1.423,1.423,0,0,0,.65,1.23,4.833,4.833,0,0,0,2.6.507,8.059,8.059,0,0,0,2.093-.217,1.527,1.527,0,0,0,1.011-.868h0l1.083-2.388h0a.571.571,0,0,1,.577-.362h8.373a.736.736,0,0,1,.577.362h0l1.083,2.316a1.758,1.758,0,0,0,1.083.941,10.906,10.906,0,0,0,4.331,0c.072,0,.144-.072.217-.072.144-.072.217-.072.289-.145a1.643,1.643,0,0,0,.65-1.3,3.028,3.028,0,0,0-.289-.724Zm-10.538-5.717h-3.392a.648.648,0,0,1-.65-.651.548.548,0,0,1,.072-.289h0l1.66-3.691h0a.571.571,0,0,1,.577-.362.736.736,0,0,1,.577.362h0l1.66,3.691h0c.072.072.072.145.072.289a.553.553,0,0,1-.577.651" transform="translate(161.356 9.902)"/>
      <path id="Path_4" data-name="Path 4" class="cls-3" d="M150.093,15.389a7.835,7.835,0,0,0-2.021-.217,8.059,8.059,0,0,0-2.093.217,1.562,1.562,0,0,0-1.155,1.52h0v7.6h0a.648.648,0,0,1-.65.651.654.654,0,0,1-.505-.217h0l-8.228-9.119h0a1,1,0,0,0-.289-.217,5.617,5.617,0,0,0-2.815-.507,7.507,7.507,0,0,0-2.815.434,1.618,1.618,0,0,0-.722,1.3V34.279a1.761,1.761,0,0,0,.65,1.3c.072.072.144.072.217.145h.144a8.059,8.059,0,0,0,2.093.217,7.835,7.835,0,0,0,2.021-.217,1.548,1.548,0,0,0,1.227-1.52V26.1a.648.648,0,0,1,.65-.651.514.514,0,0,1,.433.217h0l8.734,9.626a1.914,1.914,0,0,0,.433.362h.072a1.024,1.024,0,0,0,.433.145,8.059,8.059,0,0,0,2.093.217,8.449,8.449,0,0,0,2.093-.217,1.614,1.614,0,0,0,1.3-1.52h0V16.909h0a1.893,1.893,0,0,0-1.3-1.52" transform="translate(171.177 9.846)"/>
      <path id="Path_5" data-name="Path 5" class="cls-3" d="M77.744,25.4a13.882,13.882,0,0,0-3.1-1.23,28.162,28.162,0,0,0-4.042-.868c-.866-.145-1.66-.289-2.238-.434a10.444,10.444,0,0,1-1.371-.434,1.428,1.428,0,0,1-.722-.507.823.823,0,0,1-.217-.579v-.072a1.156,1.156,0,0,1,.65-.941,3.6,3.6,0,0,1,1.949-.362,12.768,12.768,0,0,1,3.609.507A14.026,14.026,0,0,1,75,21.5h0a1.357,1.357,0,0,0,.577.145.649.649,0,0,0,.361-.072,3.918,3.918,0,0,0,1.66-1.23,4.065,4.065,0,0,0,.866-1.3v-.072c.072-.145.072-.289.144-.434v-.145a1.624,1.624,0,0,0-.938-1.447h0a19.476,19.476,0,0,0-2.887-1.013,24.7,24.7,0,0,0-5.991-.724,14.753,14.753,0,0,0-4.186.507,9.816,9.816,0,0,0-3.176,1.375,6.2,6.2,0,0,0-2.021,2.1,5.428,5.428,0,0,0-.722,2.605v.072a4.525,4.525,0,0,0,.794,2.678,6.442,6.442,0,0,0,2.093,1.809,12.053,12.053,0,0,0,3.1,1.158c1.227.289,2.454.579,3.9.8q1.3.217,2.165.434a10.444,10.444,0,0,1,1.371.434,1.428,1.428,0,0,1,.722.507.823.823,0,0,1,.217.579v.072a1.133,1.133,0,0,1-.794,1.013,5.726,5.726,0,0,1-2.238.362,15.822,15.822,0,0,1-7.507-1.882h0a1.217,1.217,0,0,0-.722-.217h-.217a.783.783,0,0,0-.361.072H61a9.3,9.3,0,0,0-1.3.941,4.712,4.712,0,0,0-1.227,1.665c0,.145-.072.217-.072.362a1.574,1.574,0,0,0,1.011,1.447,18.893,18.893,0,0,0,3.537,1.375,24.934,24.934,0,0,0,6.641.868,19.95,19.95,0,0,0,4.331-.434,10.617,10.617,0,0,0,3.32-1.3A6.7,6.7,0,0,0,79.4,32.5a5.174,5.174,0,0,0,.794-2.823V29.6a4.464,4.464,0,0,0-.65-2.461,4.2,4.2,0,0,0-1.8-1.737" transform="translate(190.762 9.819)"/>
      <path id="Path_6" data-name="Path 6" class="cls-3" d="M114.337,15.607c-.072-.072-.144-.072-.217-.145-.072,0-.144-.072-.217-.072a8.4,8.4,0,0,0-2.238-.289,8.68,8.68,0,0,0-2.165.217,1.562,1.562,0,0,0-1.155,1.52h0v9.987a3.911,3.911,0,0,1-1.155,3.184,4.912,4.912,0,0,1-3.176,1.013,4.574,4.574,0,0,1-3.176-1.086,4.243,4.243,0,0,1-1.155-3.329v-9.7h0a1.367,1.367,0,0,0-.794-1.3c-.072,0-.072-.072-.144-.072s-.144-.072-.217-.072a8.4,8.4,0,0,0-2.238-.289,6.2,6.2,0,0,0-2.238.289h-.217c-.072.072-.144.072-.217.145a1.521,1.521,0,0,0-.722,1.3h0V26.9a10.876,10.876,0,0,0,.794,4.2,8.092,8.092,0,0,0,2.165,2.967A8.7,8.7,0,0,0,99.324,35.8a17.76,17.76,0,0,0,4.547.579,18.339,18.339,0,0,0,4.619-.579,8.7,8.7,0,0,0,3.465-1.737,7.693,7.693,0,0,0,2.238-2.967,10.986,10.986,0,0,0,.794-4.27V16.909h0a1.643,1.643,0,0,0-.65-1.3" transform="translate(181.164 9.846)"/>
      <path id="Union_2" data-name="Union 2" class="cls-3" d="M8.312,20.268a1.62,1.62,0,0,1-.722-1.3V5.648A.648.648,0,0,0,6.941,5H1.961a1.615,1.615,0,0,1-.431-.058A2,2,0,0,1,0,3V2A2,2,0,0,1,2,0H19.552q.061,0,.12,0h.044a1.4,1.4,0,0,1,.7.191A2,2,0,0,1,21.552,2V3A2,2,0,0,1,20.7,4.634,1.514,1.514,0,0,1,19.717,5H14.809a.648.648,0,0,0-.65.652V18.965a1.463,1.463,0,0,1-.649,1.3c-.073.072-.145.072-.217.145-.072,0-.144.072-.217.072a8.669,8.669,0,0,1-2.165.217A5.214,5.214,0,0,1,8.312,20.268Z" transform="translate(346.448 25.088)"/>
    </g>
  </g>
</svg>
